<svg width="40" height="41" viewBox="0 0 40 41" fill="none" xmlns="http://www.w3.org/2000/svg">
<path d="M30 3.48936C33.0404 5.24473 35.5652 7.76951 37.3205 10.8099C39.0759 13.8503 40 17.2992 40 20.81C40 24.3207 39.0758 27.7696 37.3204 30.81C35.565 33.8504 33.0402 36.3752 29.9998 38.1305C26.9594 39.8858 23.5104 40.8099 19.9997 40.8099C16.4889 40.8098 13.04 39.8856 9.99967 38.1302C6.9593 36.3747 4.43458 33.8499 2.67927 30.8095C0.92396 27.769 -8.91793e-05 24.3201 6.45537e-09 20.8094L0.0100002 20.1614C0.122006 16.7073 1.1271 13.3413 2.92728 10.3913C4.72746 7.4414 7.26131 5.00826 10.2818 3.32912C13.3023 1.64998 16.7063 0.782149 20.162 0.810231C23.6177 0.838313 27.0072 1.76135 30 3.48936ZM17.578 12.2574C17.1038 11.3084 16.272 10.5868 15.2657 10.2511C14.2594 9.91538 13.1609 9.99318 12.212 10.4674L11.106 11.0214C10.6485 11.268 10.3051 11.6831 10.1484 12.1787C9.99165 12.6742 10.034 13.2113 10.2664 13.6761C10.4989 14.141 10.9031 14.4971 11.3936 14.6691C11.884 14.841 12.4222 14.8153 12.894 14.5974L14 14.0454L13.998 16.8094H12C11.5101 16.8094 11.0373 16.9893 10.6713 17.3148C10.3052 17.6403 10.0713 18.0889 10.014 18.5754L10 18.8094C10 19.3398 10.2107 19.8485 10.5858 20.2236C10.9609 20.5986 11.4696 20.8094 12 20.8094H13.998L14 26.8094C13.9999 28.3398 14.5846 29.8124 15.6346 30.9259C16.6845 32.0394 18.1202 32.7096 19.648 32.7994L20 32.8094H21C22.8565 32.8094 24.637 32.0719 25.9497 30.7591C27.2625 29.4464 28 27.6659 28 25.8094V24.8094C28 24.2789 27.7893 23.7702 27.4142 23.3951C27.0391 23.0201 26.5304 22.8094 26 22.8094H24C23.4696 22.8094 22.9609 23.0201 22.5858 23.3951C22.2107 23.7702 22 24.2789 22 24.8094L22.014 25.0434C22.0666 25.4898 22.2682 25.9055 22.586 26.2233C22.9039 26.5412 23.3196 26.7427 23.766 26.7954L23.83 26.7994L23.79 26.9134C23.5686 27.4727 23.1842 27.9525 22.6867 28.2906C22.1892 28.6287 21.6015 28.8095 21 28.8094H20C19.4696 28.8094 18.9609 28.5986 18.5858 28.2236C18.2107 27.8485 18 27.3398 18 26.8094L17.998 20.8094H26C26.4899 20.8093 26.9627 20.6294 27.3287 20.3039C27.6948 19.9784 27.9287 19.5299 27.986 19.0434L28 18.8094C28 18.2789 27.7893 17.7702 27.4142 17.3951C27.0391 17.0201 26.5304 16.8094 26 16.8094H17.998L18 14.0454C18 13.5493 17.9078 13.0576 17.728 12.5954L17.578 12.2574Z" fill="#1DD100"/>
</svg>
